0
SECTION
2
HEADER
0
ENDSEC
0
SECTION
2
TABLES
0
TABLE
2
LAYER
70
6
0
LAYER
2
PAD_CENTER
70
0
62
1
6
CONTINUOUS
0
LAYER
2
DRILL
70
0
62
2
6
CONTINUOUS
0
LAYER
2
ASSEMBLY
70
0
62
3
6
CONTINUOUS
0
LAYER
2
SILKSCREEN
70
0
62
4
6
CONTINUOUS
0
LAYER
2
PLACE_BOUND
70
0
62
5
6
CONTINUOUS
0
LAYER
2
PIN_NUMBER
70
0
62
6
6
CONTINUOUS
0
ENDTAB
0
ENDSEC
0
SECTION
2
ENTITIES
0
CIRCLE
8
PAD_CENTER
10
-15.2400
20
-12.7000
30
0
40
1.3000
0
CIRCLE
8
DRILL
10
-15.2400
20
-12.7000
30
0
40
0.6500
0
TEXT
8
PIN_NUMBER
10
-13.7400
20
-13.3000
30
0
40
1.200
1
1
0
CIRCLE
8
PAD_CENTER
10
-10.1600
20
-12.7000
30
0
40
1.3000
0
CIRCLE
8
DRILL
10
-10.1600
20
-12.7000
30
0
40
0.6500
0
TEXT
8
PIN_NUMBER
10
-8.6600
20
-13.3000
30
0
40
1.200
1
2
0
CIRCLE
8
PAD_CENTER
10
-5.0800
20
-12.7000
30
0
40
1.3000
0
CIRCLE
8
DRILL
10
-5.0800
20
-12.7000
30
0
40
0.6500
0
TEXT
8
PIN_NUMBER
10
-3.5800
20
-13.3000
30
0
40
1.200
1
3
0
CIRCLE
8
PAD_CENTER
10
0.0000
20
-12.7000
30
0
40
1.3000
0
CIRCLE
8
DRILL
10
0.0000
20
-12.7000
30
0
40
0.6500
0
TEXT
8
PIN_NUMBER
10
1.5000
20
-13.3000
30
0
40
1.200
1
4
0
CIRCLE
8
PAD_CENTER
10
5.0800
20
-12.7000
30
0
40
1.3000
0
CIRCLE
8
DRILL
10
5.0800
20
-12.7000
30
0
40
0.6500
0
TEXT
8
PIN_NUMBER
10
6.5800
20
-13.3000
30
0
40
1.200
1
5
0
CIRCLE
8
PAD_CENTER
10
10.1600
20
-12.7000
30
0
40
1.3000
0
CIRCLE
8
DRILL
10
10.1600
20
-12.7000
30
0
40
0.6500
0
TEXT
8
PIN_NUMBER
10
11.6600
20
-13.3000
30
0
40
1.200
1
6
0
CIRCLE
8
PAD_CENTER
10
15.2400
20
-12.7000
30
0
40
1.3000
0
CIRCLE
8
DRILL
10
15.2400
20
-12.7000
30
0
40
0.6500
0
TEXT
8
PIN_NUMBER
10
16.7400
20
-13.3000
30
0
40
1.200
1
7
0
CIRCLE
8
PAD_CENTER
10
12.7000
20
12.7000
30
0
40
1.3000
0
CIRCLE
8
DRILL
10
12.7000
20
12.7000
30
0
40
0.6500
0
TEXT
8
PIN_NUMBER
10
14.2000
20
12.1000
30
0
40
1.200
1
8
0
CIRCLE
8
PAD_CENTER
10
7.6200
20
12.7000
30
0
40
1.3000
0
CIRCLE
8
DRILL
10
7.6200
20
12.7000
30
0
40
0.6500
0
TEXT
8
PIN_NUMBER
10
9.1200
20
12.1000
30
0
40
1.200
1
9
0
CIRCLE
8
PAD_CENTER
10
2.5400
20
12.7000
30
0
40
1.3000
0
CIRCLE
8
DRILL
10
2.5400
20
12.7000
30
0
40
0.6500
0
TEXT
8
PIN_NUMBER
10
4.0400
20
12.1000
30
0
40
1.200
1
10
0
CIRCLE
8
PAD_CENTER
10
-2.5400
20
12.7000
30
0
40
1.3000
0
CIRCLE
8
DRILL
10
-2.5400
20
12.7000
30
0
40
0.6500
0
TEXT
8
PIN_NUMBER
10
-1.0400
20
12.1000
30
0
40
1.200
1
11
0
CIRCLE
8
PAD_CENTER
10
-7.6200
20
12.7000
30
0
40
1.3000
0
CIRCLE
8
DRILL
10
-7.6200
20
12.7000
30
0
40
0.6500
0
TEXT
8
PIN_NUMBER
10
-6.1200
20
12.1000
30
0
40
1.200
1
12
0
CIRCLE
8
PAD_CENTER
10
-12.7000
20
12.7000
30
0
40
1.3000
0
CIRCLE
8
DRILL
10
-12.7000
20
12.7000
30
0
40
0.6500
0
TEXT
8
PIN_NUMBER
10
-11.2000
20
12.1000
30
0
40
1.200
1
13
0
LINE
8
ASSEMBLY
10
-16.8000
20
-15.5500
30
0
11
16.8000
21
-15.5500
31
0
0
LINE
8
ASSEMBLY
10
16.8000
20
-15.5500
30
0
11
16.8000
21
15.5500
31
0
0
LINE
8
ASSEMBLY
10
16.8000
20
15.5500
30
0
11
-16.8000
21
15.5500
31
0
0
LINE
8
ASSEMBLY
10
-16.8000
20
15.5500
30
0
11
-16.8000
21
-15.5500
31
0
0
LINE
8
PLACE_BOUND
10
-17.8000
20
-16.5500
30
0
11
17.8000
21
-16.5500
31
0
0
LINE
8
PLACE_BOUND
10
17.8000
20
-16.5500
30
0
11
17.8000
21
16.5500
31
0
0
LINE
8
PLACE_BOUND
10
17.8000
20
16.5500
30
0
11
-17.8000
21
16.5500
31
0
0
LINE
8
PLACE_BOUND
10
-17.8000
20
16.5500
30
0
11
-17.8000
21
-16.5500
31
0
0
LINE
8
SILKSCREEN
10
-17.1000
20
-15.8500
30
0
11
-12.1000
21
-15.8500
31
0
0
LINE
8
SILKSCREEN
10
-17.1000
20
-15.8500
30
0
11
-17.1000
21
-10.8500
31
0
0
LINE
8
SILKSCREEN
10
-17.1000
20
15.8500
30
0
11
-12.1000
21
15.8500
31
0
0
LINE
8
SILKSCREEN
10
-17.1000
20
15.8500
30
0
11
-17.1000
21
10.8500
31
0
0
LINE
8
SILKSCREEN
10
17.1000
20
-15.8500
30
0
11
12.1000
21
-15.8500
31
0
0
LINE
8
SILKSCREEN
10
17.1000
20
-15.8500
30
0
11
17.1000
21
-10.8500
31
0
0
LINE
8
SILKSCREEN
10
17.1000
20
15.8500
30
0
11
12.1000
21
15.8500
31
0
0
LINE
8
SILKSCREEN
10
17.1000
20
15.8500
30
0
11
17.1000
21
10.8500
31
0
0
CIRCLE
8
SILKSCREEN
10
-17.5400
20
-12.7000
30
0
40
0.4000
0
TEXT
8
ASSEMBLY
10
-16.8000
20
16.5500
30
0
40
1.500
1
XFMR508P2540X3360X3110-13N-ALL
0
ENDSEC
0
EOF
