0
SECTION
2
HEADER
0
ENDSEC
0
SECTION
2
TABLES
0
TABLE
2
LAYER
70
6
0
LAYER
2
PAD_CENTER
70
0
62
1
6
CONTINUOUS
0
LAYER
2
DRILL
70
0
62
2
6
CONTINUOUS
0
LAYER
2
ASSEMBLY
70
0
62
3
6
CONTINUOUS
0
LAYER
2
SILKSCREEN
70
0
62
4
6
CONTINUOUS
0
LAYER
2
PLACE_BOUND
70
0
62
5
6
CONTINUOUS
0
LAYER
2
PIN_NUMBER
70
0
62
6
6
CONTINUOUS
0
ENDTAB
0
ENDSEC
0
SECTION
2
ENTITIES
0
CIRCLE
8
PAD_CENTER
10
-15.0000
20
-17.7500
30
0
40
1.3000
0
CIRCLE
8
DRILL
10
-15.0000
20
-17.7500
30
0
40
0.6500
0
TEXT
8
PIN_NUMBER
10
-13.5000
20
-18.3500
30
0
40
1.200
1
1
0
CIRCLE
8
PAD_CENTER
10
-9.9000
20
-17.7500
30
0
40
1.3000
0
CIRCLE
8
DRILL
10
-9.9000
20
-17.7500
30
0
40
0.6500
0
TEXT
8
PIN_NUMBER
10
-8.4000
20
-18.3500
30
0
40
1.200
1
2
0
CIRCLE
8
PAD_CENTER
10
4.8000
20
17.7500
30
0
40
1.3000
0
CIRCLE
8
DRILL
10
4.8000
20
17.7500
30
0
40
0.6500
0
TEXT
8
PIN_NUMBER
10
6.3000
20
17.1500
30
0
40
1.200
1
9
0
CIRCLE
8
PAD_CENTER
10
-4.8000
20
17.7500
30
0
40
1.3000
0
CIRCLE
8
DRILL
10
-4.8000
20
17.7500
30
0
40
0.6500
0
TEXT
8
PIN_NUMBER
10
-3.3000
20
17.1500
30
0
40
1.200
1
10
0
LINE
8
ASSEMBLY
10
-19.0000
20
-19.0000
30
0
11
19.0000
21
-19.0000
31
0
0
LINE
8
ASSEMBLY
10
19.0000
20
-19.0000
30
0
11
19.0000
21
19.0000
31
0
0
LINE
8
ASSEMBLY
10
19.0000
20
19.0000
30
0
11
-19.0000
21
19.0000
31
0
0
LINE
8
ASSEMBLY
10
-19.0000
20
19.0000
30
0
11
-19.0000
21
-19.0000
31
0
0
LINE
8
PLACE_BOUND
10
-20.0000
20
-20.0500
30
0
11
20.0000
21
-20.0500
31
0
0
LINE
8
PLACE_BOUND
10
20.0000
20
-20.0500
30
0
11
20.0000
21
20.0500
31
0
0
LINE
8
PLACE_BOUND
10
20.0000
20
20.0500
30
0
11
-20.0000
21
20.0500
31
0
0
LINE
8
PLACE_BOUND
10
-20.0000
20
20.0500
30
0
11
-20.0000
21
-20.0500
31
0
0
LINE
8
SILKSCREEN
10
-19.3000
20
-19.3000
30
0
11
-14.3000
21
-19.3000
31
0
0
LINE
8
SILKSCREEN
10
-19.3000
20
-19.3000
30
0
11
-19.3000
21
-14.3000
31
0
0
LINE
8
SILKSCREEN
10
-19.3000
20
19.3000
30
0
11
-14.3000
21
19.3000
31
0
0
LINE
8
SILKSCREEN
10
-19.3000
20
19.3000
30
0
11
-19.3000
21
14.3000
31
0
0
LINE
8
SILKSCREEN
10
19.3000
20
-19.3000
30
0
11
14.3000
21
-19.3000
31
0
0
LINE
8
SILKSCREEN
10
19.3000
20
-19.3000
30
0
11
19.3000
21
-14.3000
31
0
0
LINE
8
SILKSCREEN
10
19.3000
20
19.3000
30
0
11
14.3000
21
19.3000
31
0
0
LINE
8
SILKSCREEN
10
19.3000
20
19.3000
30
0
11
19.3000
21
14.3000
31
0
0
CIRCLE
8
SILKSCREEN
10
-17.3000
20
-17.7500
30
0
40
0.4000
0
TEXT
8
ASSEMBLY
10
-19.0000
20
20.0000
30
0
40
1.500
1
XFMR510P3550X3800X3800-12N
0
ENDSEC
0
EOF
