<svg xmlns="http://www.w3.org/2000/svg" width="928" height="848" viewBox="0 0 928 848">
<rect width="928" height="848" fill="#fff"/>
<rect x="80.0" y="90.0" width="768.0" height="668.0" fill="none" stroke="#c8b8e8" stroke-width="1.5" stroke-dasharray="7 4"/>
<rect x="86.0" y="160.0" width="312.0" height="148.0" fill="none" stroke="#2a6fd6" stroke-width="1.2" stroke-dasharray="4 3"/>
<rect x="100.0" y="174.0" width="284.0" height="120.0" fill="#d98f3f"/>
<rect x="124.0" y="174.0" width="260.0" height="120.0" fill="#5a5f6a" opacity="0.92"/>
<text x="93.0" y="238.0" font-family="Helvetica" font-size="13" text-anchor="end" fill="#2a6fd6">1 IN</text>
<rect x="86.0" y="540.0" width="312.0" height="148.0" fill="none" stroke="#2a6fd6" stroke-width="1.2" stroke-dasharray="4 3"/>
<rect x="100.0" y="554.0" width="284.0" height="120.0" fill="#d98f3f"/>
<rect x="124.0" y="554.0" width="260.0" height="120.0" fill="#5a5f6a" opacity="0.92"/>
<text x="93.0" y="618.0" font-family="Helvetica" font-size="13" text-anchor="end" fill="#2a6fd6">2 OUT</text>
<rect x="530.0" y="350.0" width="312.0" height="148.0" fill="none" stroke="#2a6fd6" stroke-width="1.2" stroke-dasharray="4 3"/>
<rect x="544.0" y="364.0" width="284.0" height="120.0" fill="#d98f3f"/>
<rect x="544.0" y="364.0" width="260.0" height="120.0" fill="#5a5f6a" opacity="0.92"/>
<text x="835.0" y="428.0" font-family="Helvetica" font-size="13" text-anchor="start" fill="#2a6fd6">3 GND</text>
<line x1="324.0" y1="120.0" x2="604.0" y2="120.0" stroke="#111" stroke-width="20.0"/>
<line x1="324.0" y1="728.0" x2="604.0" y2="728.0" stroke="#111" stroke-width="20.0"/>
<circle cx="464.0" cy="194.0" r="24.0" fill="none" stroke="#111" stroke-width="20.0"/>
<polyline points="324.0,200.0 404.0,120.0 604.0,120.0 604.0,728.0 324.0,728.0 324.0,200.0" fill="none" stroke="#999" stroke-width="1.3" stroke-dasharray="4 3"/>
<text x="160.0" y="108.0" font-family="Helvetica" font-size="13" fill="#111">REFDES</text>
<text x="464.0" y="784.0" font-family="Helvetica" font-size="11" text-anchor="middle" fill="#888">orange = copper 1.42 · grey = paste (TI stencil 1.3) · blue dash = mask NSMD +0.07/side</text>
</svg>